<svg id="Component_9_1" data-name="Component 9 – 1" xmlns="http://www.w3.org/2000/svg" xmlns:xlink="http://www.w3.org/1999/xlink" width="1923" height="1781" viewBox="0 0 1923 1781">
  <defs>
    <filter id="bg_copy_7" x="363" y="550" width="1228" height="568" filterUnits="userSpaceOnUse">
      <feOffset dy="3" input="SourceAlpha"/>
      <feGaussianBlur stdDeviation="15" result="blur"/>
      <feFlood flood-color="#f8f8f8"/>
      <feComposite operator="in" in2="blur"/>
      <feComposite in="SourceGraphic"/>
    </filter>
    <clipPath id="clip-path">
      <rect id="bg" width="43" height="37" transform="translate(0 0.02)" fill="#fff" stroke="#707070" stroke-width="1"/>
    </clipPath>
  </defs>
  <g id="login">
    <g id="Group_3" data-name="Group 3" transform="translate(1)">
      <g id="Featured_Item" data-name="Featured Item" transform="translate(0 15)">
        <g id="Bg-2" data-name="Bg" transform="translate(0 0)">
          <rect id="Bg_copy" data-name="Bg copy" width="1920" height="1762" fill="#fff"/>
        </g>
        <g id="Contact_" data-name="Contact " transform="translate(407 577)">
          <g id="Tabs" transform="translate(0 0)">
            <g id="Reviews" transform="translate(0 0)">
              <g id="Right_side" data-name="Right side">
                <g transform="matrix(1, 0, 0, 1, -408, -592)" filter="url(#bg_copy_7)">
                  <rect id="bg_copy_7-2" data-name="bg copy 7" width="1138" height="478" transform="translate(408 592)" fill="#fff"/>
                </g>
                <g id="Fields" transform="translate(36 117)">
                  <g id="Button" transform="translate(1 275)">
                    <path id="Bg_copy_7-3" data-name="Bg copy 7" d="M0,0H142V50H0Z" transform="translate(0 0)" fill="#fa3150"/>
                    <text id="Submit" transform="translate(70.837 30.728)" fill="#fff" font-size="16" font-family="SegoeUI, Segoe UI" letter-spacing="0.01em"><tspan x="-25.42" y="0">Submit</tspan></text>
                  </g>
                  <text id="Please_Login_to_Your_Account" data-name="Please Login to Your Account" transform="translate(1 -73)" fill="#636363" font-size="16" font-family="Roboto-Regular, Roboto" letter-spacing="0.01em"><tspan x="0" y="0">Please Login to Your Account</tspan></text>
                  <rect id="Shape_1" data-name="Shape 1" width="60" height="1" transform="translate(2 -63)" fill="#c4c4c4"/>
                  <g id="Filds" transform="translate(0 -39)">
                    <g id="Save" transform="translate(1 242)">
                      <text id="Please_keep_me_logged_in" data-name="Please keep me logged in" transform="translate(21 15)" fill="#636363" font-size="14" font-family="Roboto-Regular, Roboto" letter-spacing="0.01em"><tspan x="0" y="0">Please keep me logged in</tspan></text>
                      <rect id="Round" width="10" height="10" rx="2" transform="translate(0 4)" fill="#c8c8c8"/>
                    </g>
                    <g id="Name_copy" data-name="Name copy" transform="translate(1 132)">
                      <rect id="Bg_copy_5" data-name="Bg copy 5" width="1062" height="50" transform="translate(0 27)" fill="#fafafa"/>
                      <text id="Password_" data-name="Password*" transform="translate(0 17)" fill="#636363" font-size="16" font-family="Roboto-Regular, Roboto" letter-spacing="0.01em"><tspan x="0" y="0">Password*</tspan></text>
                      <text id="Forgot_Your_Password_" data-name="Forgot Your Password ? " transform="translate(907 17)" fill="#fa3150" font-size="14" font-family="Roboto-Regular, Roboto" letter-spacing="0.01em"><tspan x="0" y="0">Forgot Your Password ? </tspan></text>
                    </g>
                    <g id="Name_copy-2" data-name="Name copy" transform="translate(1 29)">
                      <rect id="Bg_copy_5-2" data-name="Bg copy 5" width="1062" height="50" transform="translate(0 27)" fill="#fafafa"/>
                      <text id="E-mail_" data-name="E-mail*" transform="translate(0 17)" fill="#636363" font-size="16" font-family="Roboto-Regular, Roboto" letter-spacing="0.01em"><tspan x="0" y="0">E-mail*</tspan></text>
                    </g>
                    <g id="Save-2" data-name="Save" transform="translate(1 242)">
                      <text id="Please_keep_me_logged_in-2" data-name="Please keep me logged in" transform="translate(21 15)" fill="#636363" font-size="14" font-family="Roboto-Regular, Roboto" letter-spacing="0.01em"><tspan x="0" y="0">Please keep me logged in</tspan></text>
                      <rect id="Round-2" data-name="Round" width="10" height="10" rx="2" transform="translate(0 4)" fill="#c8c8c8"/>
                    </g>
                    <g id="Save-3" data-name="Save" transform="translate(75 63)">
                      <text id="Don_t_have_an_Account_yet_" data-name="Don&apos;t have an Account yet?" transform="translate(2 -19)" fill="#fa3150" font-size="14" font-family="Roboto-Regular, Roboto" letter-spacing="0.01em"><tspan x="0" y="0">Don&apos;t have an Account yet?</tspan></text>
                    </g>
                  </g>
                </g>
              </g>
            </g>
          </g>
        </g>
      </g>
    </g>
    <g id="Headers" transform="translate(3 -40)">
      <g id="Headers_bottom" data-name="Headers bottom" transform="translate(0 40)">
        <g id="header_button" data-name="header button">
          <rect id="header_bg" data-name="header bg" width="1920" height="100" fill="#fff"/>
        </g>
      </g>
      <g id="Headers_copy" data-name="Headers copy" transform="translate(352 81.98)">
        <g id="Hedar_text" data-name="Hedar text" transform="translate(2 -12)">
          <g id="Logo" transform="translate(-7 -6)">
            <text id="bmerketo" transform="translate(60.465 36.02)" fill="#1a1a1a" font-size="27" font-family="Poppins-Bold, Poppins" font-weight="700"><tspan x="0" y="0">bmerketo</tspan></text>
            <g id="Mask_Group_1" data-name="Mask Group 1" transform="translate(21 8)" clip-path="url(#clip-path)">
              <path id="Icon_simple-bigcartel" data-name="Icon simple-bigcartel" d="M14.217,17.332V16a2.021,2.021,0,0,1,1.167-2L25.715,7.5a2.185,2.185,0,0,0,1-2V0l-12.5,8L1.717,0V16.83a12.224,12.224,0,0,0,5.332,10.5l7,4.5,7-4.5c3.333-2,5.332-5.833,5.332-10.5v-7.5Z" transform="translate(6.84 5.52)"/>
            </g>
          </g>
          <text id="Login-2" data-name="Login" transform="translate(1104 25.02)" fill="#aeaeae" font-size="16" font-family="Poppins-Regular, Poppins"><tspan x="0" y="0">Login</tspan></text>
        </g>
      </g>
    </g>
    <g id="Cart" transform="translate(1525 29.98)">
      <circle id="Round-3" data-name="Round" cx="8" cy="8" r="8" transform="translate(9 0.02)" fill="#fa3150"/>
      <text id="_2" data-name="2" transform="translate(14 12.02)" fill="#fff" font-size="10" font-family="Poppins-Regular, Poppins" letter-spacing="0.025em"><tspan x="0" y="0">2</tspan></text>
    </g>
    <g id="Copyright" transform="translate(0 -6410)">
      <rect id="bg-3" data-name="bg" width="1920" height="98" transform="translate(0 8093)" fill="#292929"/>
      <text id="_2023_bmarketo._All_right_reserved." data-name="© 2023 bmarketo.  All right reserved." transform="translate(814 8148)" fill="#a5a5a5" font-size="16" font-family="Poppins-Regular, Poppins"><tspan x="0" y="0" xml:space="preserve">© 2023 bmarketo.  All right reserved.</tspan></text>
    </g>
  </g>
  <g id="Group_8" data-name="Group 8" transform="translate(3)">
    <path id="cart-shopping-solid" d="M0,.791A.789.789,0,0,1,.791,0h1.5A1.846,1.846,0,0,1,3.958,1.055H17.5a1.317,1.317,0,0,1,1.272,1.661L17.423,7.734a2.376,2.376,0,0,1-2.29,1.756H5.625l.178.939a.794.794,0,0,0,.778.643h9.5a.791.791,0,0,1,0,1.582h-9.5a2.37,2.37,0,0,1-2.33-1.928L2.551,1.8a.262.262,0,0,0-.26-.214H.791A.789.789,0,0,1,0,.791Zm4.218,14.5A1.582,1.582,0,1,1,5.8,16.872,1.582,1.582,0,0,1,4.218,15.29ZM15.29,13.709a1.582,1.582,0,1,1-1.582,1.582A1.582,1.582,0,0,1,15.29,13.709Z" transform="translate(1520.18 41)" fill="#aeaeae"/>
    <g id="Cart-2" data-name="Cart" transform="translate(1522 29.98)">
      <circle id="Round-4" data-name="Round" cx="8" cy="8" r="8" transform="translate(9 0.02)" fill="#fa3150"/>
      <text id="_2-2" data-name="2" transform="translate(14 12.02)" fill="#fff" font-size="10" font-family="Poppins-Regular, Poppins" letter-spacing="0.025em"><tspan x="0" y="0">2</tspan></text>
    </g>
  </g>
</svg>
